<?xml version="1.0" encoding="UTF-8" standalone="no"?>
<svg
   xmlns:dc="http://purl.org/dc/elements/1.1/"
   xmlns:cc="http://creativecommons.org/ns#"
   xmlns:rdf="http://www.w3.org/1999/02/22-rdf-syntax-ns#"
   xmlns:svg="http://www.w3.org/2000/svg"
   xmlns="http://www.w3.org/2000/svg"
   id="svg3"
   version="1.1"
   viewBox="0 0 11.018 10.739"
   height="10.739"
   width="11.018">
  <metadata
     id="metadata9">
    <rdf:RDF>
      <cc:Work
         rdf:about="">
        <dc:format>image/svg+xml</dc:format>
        <dc:type
           rdf:resource="http://purl.org/dc/dcmitype/StillImage" />
        <dc:title></dc:title>
      </cc:Work>
    </rdf:RDF>
  </metadata>
  <defs
     id="defs7" />
  <path
     style="fill:#000000"
     d="m 6.3344452,0.72 -0.546,-0.546 a 0.588,0.588 0 0 0 -0.834,0 L 0.17444518,4.9520004 a 0.588,0.588 0 0 0 0,0.834 L 4.9544452,10.566 a 0.588,0.588 0 0 0 0.834,0 l 0.546,-0.546 a 0.591,0.591 0 0 0 -0.01,-0.8429996 l -2.963,-2.823 h 7.0670008 a 0.589,0.589 0 0 0 0.59,-0.59 v -0.787 a 0.589,0.589 0 0 0 -0.59,-0.59 H 3.3614452 l 2.963,-2.823 A 0.587,0.587 0 0 0 6.3344452,0.72 Z"
     data-name="Icon awesome-arrow-left"
     id="Icon_awesome-arrow-left" />
</svg>
