<svg xmlns="http://www.w3.org/2000/svg" width="10.816" height="10.816" viewBox="0 0 10.816 10.816">
  <path id="icon" d="M8.658,10.816H1.067A1.028,1.028,0,0,1,.318,10.5,1.033,1.033,0,0,1,0,9.75V2.158H1.067V9.75H8.658v1.065ZM9.75,8.658H3.25a1.048,1.048,0,0,1-.761-.33,1.048,1.048,0,0,1-.33-.761v-6.5a1.008,1.008,0,0,1,.33-.749A1.07,1.07,0,0,1,3.25,0h6.5a1.033,1.033,0,0,1,.75.318,1.028,1.028,0,0,1,.317.749v6.5a1.069,1.069,0,0,1-.317.761A1.012,1.012,0,0,1,9.75,8.658ZM3.784,5.942V7.034h3.25V5.942Zm0-2.158V4.875H9.192V3.784Zm0-2.158V2.691H9.192V1.625Z" transform="translate(0)" fill="#fff"/>
</svg>
