<?xml version="1.0" encoding="UTF-8" standalone="no"?>
<svg
   xmlns:dc="http://purl.org/dc/elements/1.1/"
   xmlns:cc="http://creativecommons.org/ns#"
   xmlns:rdf="http://www.w3.org/1999/02/22-rdf-syntax-ns#"
   xmlns:svg="http://www.w3.org/2000/svg"
   xmlns="http://www.w3.org/2000/svg"
   xmlns:sodipodi="http://sodipodi.sourceforge.net/DTD/sodipodi-0.dtd"
   xmlns:inkscape="http://www.inkscape.org/namespaces/inkscape"
   width="11.018"
   height="10.739"
   viewBox="0 0 11.018 10.739"
   version="1.1"
   id="svg3"
   sodipodi:docname="icon-arrow-right.svg"
   inkscape:version="0.92.1 r15371">
  <metadata
     id="metadata9">
    <rdf:RDF>
      <cc:Work
         rdf:about="">
        <dc:format>image/svg+xml</dc:format>
        <dc:type
           rdf:resource="http://purl.org/dc/dcmitype/StillImage" />
        <dc:title></dc:title>
      </cc:Work>
    </rdf:RDF>
  </metadata>
  <defs
     id="defs7" />
  <sodipodi:namedview
     pagecolor="#ffffff"
     bordercolor="#666666"
     borderopacity="1"
     objecttolerance="10"
     gridtolerance="10"
     guidetolerance="10"
     inkscape:pageopacity="0"
     inkscape:pageshadow="2"
     inkscape:window-width="1920"
     inkscape:window-height="1018"
     id="namedview5"
     showgrid="false"
     inkscape:zoom="21.975975"
     inkscape:cx="4.7126756"
     inkscape:cy="5.3695002"
     inkscape:window-x="-8"
     inkscape:window-y="-8"
     inkscape:window-maximized="1"
     inkscape:current-layer="svg3" />
  <path
     id="Icon_awesome-arrow-left"
     data-name="Icon awesome-arrow-left"
     d="m 6.3344452,0.72 -0.546,-0.546 a 0.588,0.588 0 0 0 -0.834,0 L 0.17444518,4.9520004 a 0.588,0.588 0 0 0 0,0.834 L 4.9544452,10.566 a 0.588,0.588 0 0 0 0.834,0 l 0.546,-0.546 a 0.591,0.591 0 0 0 -0.01,-0.8429996 l -2.963,-2.823 h 7.0670008 a 0.589,0.589 0 0 0 0.59,-0.59 v -0.787 a 0.589,0.589 0 0 0 -0.59,-0.59 H 3.3614452 l 2.963,-2.823 A 0.587,0.587 0 0 0 6.3344452,0.72 Z"
     inkscape:connector-curvature="0"
     style="fill:#000000" />
</svg>
